<svg xmlns="http://www.w3.org/2000/svg" viewBox="0 0 200 200" fill="none">
  <ellipse cx="100" cy="180" rx="60" ry="6" fill="#000" opacity=".10"/>
  <rect x="40" y="130" width="120" height="32" rx="6" fill="#6366F1" stroke="#fff" stroke-width="3"/>
  <rect x="50" y="138" width="100" height="4" rx="2" fill="#A5B4FC"/>
  <rect x="50" y="148" width="60" height="4" rx="2" fill="#A5B4FC"/>
  <rect x="48" y="92" width="104" height="34" rx="6" fill="#F472B6" stroke="#fff" stroke-width="3"/>
  <rect x="58" y="100" width="84" height="4" rx="2" fill="#FBCFE8"/>
  <rect x="58" y="110" width="48" height="4" rx="2" fill="#FBCFE8"/>
  <rect x="38" y="56" width="124" height="32" rx="6" fill="#F59E0B" stroke="#fff" stroke-width="3"/>
  <rect x="48" y="64" width="104" height="4" rx="2" fill="#FED7AA"/>
  <rect x="48" y="74" width="62" height="4" rx="2" fill="#FED7AA"/>
  <path d="M150 30 l4 8 8 -4 -4 8 8 4 -8 4 4 8 -8 -4 -4 8 -4 -8 -8 4 4 -8 -8 -4 8 -4 -4 -8 8 4 z" fill="#FBBF24" opacity=".9"/>
</svg>
