<svg xmlns="http://www.w3.org/2000/svg" viewBox="0 0 220 220" fill="none" role="img" aria-labelledby="createTitle createDesc">
  <title id="createTitle">Create hub illustration</title>
  <desc id="createDesc">A child drawing AI-powered stories, music, art, and games on a glowing tablet.</desc>
  <defs>
    <linearGradient id="createTablet" x1="52" y1="82" x2="171" y2="173" gradientUnits="userSpaceOnUse">
      <stop stop-color="#FFF7ED"/>
      <stop offset="1" stop-color="#FCE7F3"/>
    </linearGradient>
    <linearGradient id="createMagic" x1="50" y1="38" x2="185" y2="163" gradientUnits="userSpaceOnUse">
      <stop stop-color="#FDE68A"/>
      <stop offset=".5" stop-color="#F472B6"/>
      <stop offset="1" stop-color="#8B5CF6"/>
    </linearGradient>
    <filter id="createShadow" x="18" y="35" width="184" height="166" filterUnits="userSpaceOnUse" color-interpolation-filters="sRGB">
      <feDropShadow dx="0" dy="8" stdDeviation="8" flood-color="#581C87" flood-opacity=".16"/>
    </filter>
  </defs>
  <circle cx="110" cy="110" r="94" fill="#fff" opacity=".18"/>
  <path d="M43 55c13-16 39-18 53-5 13 12 30 7 43 0 24-13 52 4 50 31-2 22 19 33 14 56-7 33-49 48-76 32-16-10-28 13-51 8-36-7-48-45-31-73 9-15-16-30-2-49Z" fill="#fff" opacity=".14"/>
  <ellipse cx="111" cy="190" rx="67" ry="9" fill="#111827" opacity=".12"/>
  <g filter="url(#createShadow)">
    <rect x="52" y="81" width="118" height="84" rx="18" fill="url(#createTablet)" stroke="#fff" stroke-width="4"/>
    <rect x="66" y="94" width="90" height="53" rx="11" fill="#FFFBEB"/>
    <path d="M80 134c13-22 24-22 34 0 7-15 16-25 29-33" stroke="#7C3AED" stroke-width="6" stroke-linecap="round" stroke-linejoin="round"/>
    <circle cx="91" cy="111" r="6" fill="#22C55E"/>
    <circle cx="136" cy="114" r="7" fill="#F97316"/>
  </g>
  <circle cx="72" cy="66" r="18" fill="#FED7AA" stroke="#fff" stroke-width="3"/>
  <path d="M57 65c2-17 21-25 34-12 0 12-8 17-19 17-6 0-11-2-15-5Z" fill="#7C2D12"/>
  <circle cx="66" cy="69" r="2" fill="#111827"/>
  <circle cx="78" cy="69" r="2" fill="#111827"/>
  <path d="M66 77c5 4 10 4 15 0" stroke="#111827" stroke-width="2.5" stroke-linecap="round"/>
  <path d="m153 53 7 7 14-17" stroke="#fff" stroke-width="8" stroke-linecap="round" stroke-linejoin="round"/>
  <path d="m153 53 7 7 14-17" stroke="#10B981" stroke-width="4" stroke-linecap="round" stroke-linejoin="round"/>
  <path d="M173 89c15 6 15 23 0 29-15-6-15-23 0-29Z" fill="#A78BFA" stroke="#fff" stroke-width="3"/>
  <path d="M48 139c-11-2-18-11-14-22 14-2 23 6 22 18l-8 4Z" fill="#FBBF24" stroke="#fff" stroke-width="3"/>
  <path d="M42 117c6 7 10 13 13 20" stroke="#92400E" stroke-width="3" stroke-linecap="round"/>
  <path d="M118 48l4 10 10 4-10 4-4 10-4-10-10-4 10-4 4-10Z" fill="url(#createMagic)"/>
  <path d="M183 141l3 7 7 3-7 3-3 7-3-7-7-3 7-3 3-7Z" fill="#FDE68A"/>
  <circle cx="45" cy="74" r="5" fill="#A7F3D0"/>
  <circle cx="190" cy="69" r="4" fill="#FCA5A5"/>
</svg>
